<svg width="253" height="201" viewBox="0 0 253 201" fill="none" xmlns="http://www.w3.org/2000/svg">
<path d="M107.277 193.11C108.203 193.168 108.715 192.02 108.014 191.35L107.945 191.074C107.954 191.052 107.963 191.029 107.972 191.007C108.909 188.778 112.082 188.794 113.011 191.026C113.835 193.007 114.884 194.992 115.142 197.086C115.258 198.011 115.206 198.953 115.001 199.86C116.931 195.65 117.948 191.053 117.948 186.429C117.948 185.268 117.884 184.106 117.754 182.947C117.647 181.999 117.499 181.057 117.308 180.124C116.274 175.079 114.037 170.273 110.809 166.259C109.257 165.413 107.963 164.089 107.181 162.503C106.901 161.931 106.681 161.315 106.576 160.688C106.753 160.711 107.242 158.027 107.109 157.862C107.355 157.489 107.796 157.304 108.064 156.94C109.401 155.131 111.243 155.447 112.204 157.905C114.258 158.94 114.278 160.656 113.018 162.306C112.216 163.356 112.106 164.777 111.402 165.901C111.475 165.993 111.55 166.083 111.622 166.176C112.949 167.875 114.097 169.701 115.065 171.62C114.791 169.487 115.195 166.918 115.883 165.262C116.667 163.376 118.136 161.786 119.429 160.155C120.983 158.196 124.168 159.051 124.442 161.535C124.444 161.559 124.447 161.583 124.45 161.607C124.257 161.715 124.069 161.83 123.885 161.951C122.837 162.644 123.199 164.266 124.442 164.458L124.47 164.462C124.4 165.153 124.282 165.837 124.108 166.511C125.767 172.916 122.185 175.248 117.07 175.353C116.958 175.411 116.847 175.469 116.735 175.524C117.253 176.98 117.667 178.474 117.974 179.988C118.249 181.326 118.44 182.678 118.547 184.037C118.68 185.75 118.668 187.472 118.524 189.183L118.532 189.122C118.9 187.238 119.925 185.479 121.413 184.259C123.629 182.441 126.761 181.772 129.153 180.311C130.304 179.608 131.779 180.517 131.578 181.849L131.568 181.913C131.212 182.057 130.865 182.225 130.529 182.413C130.337 182.521 130.149 182.636 129.965 182.757C128.916 183.449 129.279 185.072 130.521 185.263L130.549 185.268C130.569 185.27 130.587 185.273 130.607 185.276C129.996 186.724 129.145 188.068 128.08 189.226C127.042 194.818 122.587 195.348 117.82 193.72H117.817C117.296 195.985 116.535 198.199 115.556 200.308H107.48C107.451 200.219 107.425 200.126 107.398 200.037C108.145 200.083 108.898 200.04 109.633 199.904C109.034 199.17 108.435 198.43 107.836 197.696C107.821 197.682 107.81 197.667 107.798 197.653C107.494 197.277 107.187 196.904 106.883 196.529L106.883 196.528C106.864 195.375 107.002 194.226 107.277 193.11L107.277 193.11V193.11Z" fill="#F9BD26"/>
<path d="M0 200.468C0 200.763 0.237565 201 0.533397 201H181.292C181.588 201 181.825 200.763 181.825 200.468C181.825 200.172 181.588 199.935 181.292 199.935H0.533397C0.237565 199.935 0 200.172 0 200.468Z" fill="#CCCCCC"/>
<path d="M244.159 200.881H151.581C146.706 200.881 142.74 196.922 142.74 192.057V8.82473C142.74 3.95885 146.706 0 151.581 0H244.159C249.034 0 253 3.95885 253 8.82473V192.057C253 196.922 249.034 200.881 244.159 200.881V200.881ZM151.581 0.894794C147.193 0.894794 143.637 4.44505 143.637 8.82451V192.057C143.637 196.436 147.194 199.987 151.581 199.987H244.159C248.547 199.987 252.104 196.436 252.104 192.057V67.4249C252.104 30.6813 222.263 0.894794 185.453 0.894794H151.581V0.894794Z" fill="#2A9D8F"/>
<path d="M169.035 90.4271C174.976 90.4271 179.792 85.6197 179.792 79.6896C179.792 73.7594 174.976 68.952 169.035 68.952C163.094 68.952 158.278 73.7594 158.278 79.6896C158.278 85.6197 163.094 90.4271 169.035 90.4271Z" fill="#2A9D8F"/>
<path d="M226.705 90.4271C232.646 90.4271 237.462 85.6197 237.462 79.6896C237.462 73.7594 232.646 68.952 226.705 68.952C220.764 68.952 215.948 73.7594 215.948 79.6896C215.948 85.6197 220.764 90.4271 226.705 90.4271Z" fill="#2A9D8F"/>
<path d="M197.87 90.4271C203.811 90.4271 208.627 85.6197 208.627 79.6896C208.627 73.7594 203.811 68.952 197.87 68.952C191.929 68.952 187.113 73.7594 187.113 79.6896C187.113 85.6197 191.929 90.4271 197.87 90.4271Z" fill="#2A9D8F"/>
<path d="M169.035 121.297C174.976 121.297 179.792 116.49 179.792 110.56C179.792 104.63 174.976 99.8224 169.035 99.8224C163.094 99.8224 158.278 104.63 158.278 110.56C158.278 116.49 163.094 121.297 169.035 121.297Z" fill="#2A9D8F"/>
<path d="M226.705 121.297C232.646 121.297 237.462 116.49 237.462 110.56C237.462 104.63 232.646 99.8224 226.705 99.8224C220.764 99.8224 215.948 104.63 215.948 110.56C215.948 116.49 220.764 121.297 226.705 121.297Z" fill="#2A9D8F"/>
<path d="M197.87 121.297C203.811 121.297 208.627 116.49 208.627 110.56C208.627 104.63 203.811 99.8224 197.87 99.8224C191.929 99.8224 187.113 104.63 187.113 110.56C187.113 116.49 191.929 121.297 197.87 121.297Z" fill="#2A9D8F"/>
<path d="M169.035 152.168C174.976 152.168 179.792 147.361 179.792 141.43C179.792 135.5 174.976 130.693 169.035 130.693C163.094 130.693 158.278 135.5 158.278 141.43C158.278 147.361 163.094 152.168 169.035 152.168Z" fill="#2A9D8F"/>
<path d="M226.485 182.985C232.426 182.985 237.242 178.178 237.242 172.248C237.242 166.318 232.426 161.51 226.485 161.51C220.544 161.51 215.728 166.318 215.728 172.248C215.728 178.178 220.544 182.985 226.485 182.985Z" fill="#2A9D8F"/>
<path d="M183.681 182.985C197.667 182.985 209.005 178.178 209.005 172.248C209.005 166.318 197.667 161.51 183.681 161.51C169.695 161.51 158.357 166.318 158.357 172.248C158.357 178.178 169.695 182.985 183.681 182.985Z" fill="#2A9D8F"/>
<path d="M226.705 152.168C232.646 152.168 237.462 147.361 237.462 141.43C237.462 135.5 232.646 130.693 226.705 130.693C220.764 130.693 215.948 135.5 215.948 141.43C215.948 147.361 220.764 152.168 226.705 152.168Z" fill="#2A9D8F"/>
<path d="M197.87 152.168C203.811 152.168 208.627 147.361 208.627 141.43C208.627 135.5 203.811 130.693 197.87 130.693C191.929 130.693 187.113 135.5 187.113 141.43C187.113 147.361 191.929 152.168 197.87 152.168Z" fill="#F9BD26"/>
<rect x="91" y="13" width="114" height="48" rx="6" fill="#F9BD26"/>
<path d="M199.276 12.5271H96.3973C93.3468 12.5271 90.8662 15.0031 90.8662 18.0481V55.7723C90.8662 58.8173 93.3468 61.2934 96.3973 61.2934H199.276C202.327 61.2934 204.808 58.8173 204.808 55.7723V18.0481C204.808 15.0031 202.327 12.5271 199.276 12.5271ZM204.226 55.7723C204.226 58.498 202.007 60.7128 199.276 60.7128H96.3973C93.6666 60.7128 91.4478 58.498 91.4478 55.7723V18.0481C91.4478 15.3225 93.6666 13.1077 96.3973 13.1077H199.276C202.007 13.1077 204.226 15.3225 204.226 18.0481V55.7723Z" fill="#2A9D8F"/>
<path d="M30.4568 80.72L29.5405 86.1669L37.6668 105.899L42.0268 103.661L37.7832 85.1963L37.1733 78.1494L30.4568 80.72Z" fill="#A0616A"/>
<path d="M39.4273 50.0765C39.4273 50.0765 35.1726 48.0192 31.8711 54.9705C28.5696 61.9218 28.9784 77.1678 28.9784 77.1678C28.9784 77.1678 27.7763 78.3104 28.5394 79.1104C29.3025 79.9104 30.014 81.18 29.2355 82.6434C28.8252 83.4147 27.8757 84.9237 29.4306 85.3524C30.9856 85.781 38.2594 83.756 38.2594 83.756C38.2594 83.756 40.9793 82.5397 39.4339 81.7207C37.8885 80.9016 40.065 75.9468 40.065 75.9468L41.8635 61.6339L39.4273 50.0765V50.0765Z" fill="#2A9D8F"/>
<path d="M42.768 113.438C44.4758 112.914 45.1442 110.162 44.2609 107.291C43.3777 104.42 41.2773 102.517 39.5695 103.041C37.8618 103.564 37.1934 106.316 38.0766 109.187C38.9598 112.058 41.0602 113.961 42.768 113.438Z" fill="#A0616A"/>
<path d="M83.0433 198.005L87.1158 196.913L84.8381 180.714L78.8273 182.324L83.0433 198.005Z" fill="#A0616A"/>
<path d="M96.9719 194.175C97.156 194.354 97.4079 195.024 97.4745 195.272C97.6794 196.034 97.2266 196.818 96.4632 197.022L83.8506 200.4C83.3298 200.54 82.7944 200.232 82.6546 199.712L82.5137 199.188C82.5137 199.188 81.4663 197.779 82.2289 195.494C82.2289 195.494 84.2342 196.586 85.9797 193.566L86.3412 192.105L92.433 194.459L95.3488 194.05C95.9868 193.96 96.5107 193.726 96.9719 194.175H96.9719Z" fill="#2F2E41"/>
<path d="M43.1229 197.911L47.3396 197.911L49.3455 181.675L43.122 181.676L43.1229 197.911Z" fill="#A0616A"/>
<path d="M57.5699 197.816C57.7012 198.036 57.7704 198.749 57.7704 199.005C57.7704 199.794 57.1297 200.434 56.3393 200.434H43.2806C42.7414 200.434 42.3043 199.998 42.3043 199.459V198.917C42.3043 198.917 41.6582 197.286 42.9883 195.275C42.9883 195.275 44.6413 196.849 47.1113 194.384L47.8397 193.067L53.1122 196.916L56.0347 197.275C56.6741 197.353 57.241 197.263 57.5699 197.816V197.816Z" fill="#2F2E41"/>
<path d="M71.1859 101.203L82.2741 148.91L87.6269 187.458L79.2153 188.603L55.892 122.958L50.5391 188.603L40.9804 189.366C40.9804 189.366 33.3334 111.508 36.7745 101.967L71.1859 101.203Z" fill="#2F2E41"/>
<path d="M84.3842 44.791L88.2099 40.8007L92.6033 19.9221L87.7374 19.3256L80.8466 36.9775L77.3819 43.1475L84.3842 44.791Z" fill="#A0616A"/>
<path d="M59.7061 65.0986C59.7061 65.0986 63.2865 71.6885 69.9321 67.7926C76.5776 63.8968 83.6061 48.5583 83.6061 48.5583C83.6061 48.5583 85.0095 44.6591 86.4775 43.8857C87.2513 43.4781 89.2422 43.0385 88.1977 41.8114C87.1532 40.5842 79.6415 37.9014 79.6415 37.9014C79.6415 37.9014 76.7071 37.3808 77.5238 38.9255C78.3405 40.4702 75.6582 39.5133 75.929 41.1481C76.1998 42.7828 73.7498 43.3462 73.7498 43.3462L59.7061 65.0986H59.7061Z" fill="#2A9D8F"/>
<path d="M94.1164 16.9729C95.0031 14.1029 94.3379 11.3503 92.6308 10.8249C90.9237 10.2994 88.821 12.1999 87.9343 15.0699C87.0477 17.9399 87.7128 20.6924 89.42 21.2179C91.1271 21.7434 93.2298 19.8428 94.1164 16.9729Z" fill="#A0616A"/>
<path d="M60.1814 42.2672H49.7129L49.2892 45.5618C49.2892 45.5618 36.0866 49.186 36.4167 51.1628C36.7467 53.1396 38.7271 86.0863 38.7271 86.0863L37.0768 102.56C37.0768 102.56 66.7827 115.079 71.4036 100.253L69.0932 83.1211C69.0932 83.1211 74.7043 53.7985 73.384 52.4806C72.0638 51.1628 61.1716 45.8913 61.1716 45.8913L60.1814 42.2672Z" fill="#2A9D8F"/>
<path d="M54.1006 42.3082C59.29 42.3082 63.4969 38.109 63.4969 32.929C63.4969 27.749 59.29 23.5497 54.1006 23.5497C48.9112 23.5497 44.7043 27.749 44.7043 32.929C44.7043 38.109 48.9112 42.3082 54.1006 42.3082Z" fill="#A0616A"/>
<path d="M61.0594 29.0708C62.26 28.9695 63.4605 28.8682 64.661 28.7669C64.2483 28.578 63.8186 28.3758 63.5436 28.0151C63.2687 27.6545 63.2118 27.0847 63.5439 26.7757C63.9321 26.4147 64.5748 26.6059 64.999 26.924C64.7655 25.7067 64.0376 24.5913 63.0164 23.8862C61.769 23.0248 58.6831 24.0519 57.1792 23.8541C55.4441 23.626 55.2275 22.1493 53.4924 21.9211C52.8384 21.8352 52.1024 21.7703 51.5881 22.1827C51.0177 22.6401 50.9537 23.5049 50.4505 24.0349C49.732 24.7918 48.5005 24.5685 47.4779 24.7815C46.0296 25.0832 44.9379 26.3508 44.4336 27.7392C43.9294 29.1276 43.9108 30.6377 43.8979 32.1145C43.8835 33.7696 43.8783 35.6856 45.0776 36.8287C45.8081 37.5251 47.7983 39.9144 48.0134 40.8997C48.1662 41.5995 54.3931 42.4517 55.7427 42.4129L60.3427 40.8997C60.7947 38.9127 60.0469 34.9818 58.9721 33.2495C59.326 33.7161 60.9629 35.121 61.2131 34.5917C61.4634 34.0623 61.3498 32.4032 61.6613 31.9073C62.0545 31.2814 60.322 29.1331 61.0594 29.0709V29.0708Z" fill="#2F2E41"/>
<path d="M114.826 43.1239C114.36 43.1239 113.973 43.0239 113.666 42.8239C113.373 42.6239 113.173 42.3572 113.066 42.0239C112.96 41.6772 112.96 41.3039 113.066 40.9039C113.173 40.4906 113.393 40.0772 113.726 39.6639L120.626 31.0039V32.0439H114.546C114.026 32.0439 113.633 31.9172 113.366 31.6639C113.1 31.3972 112.966 31.0172 112.966 30.5239C112.966 30.0306 113.1 29.6572 113.366 29.4039C113.633 29.1506 114.026 29.0239 114.546 29.0239H122.346C122.813 29.0239 123.193 29.1239 123.486 29.3239C123.793 29.5239 124 29.7906 124.106 30.1239C124.213 30.4572 124.213 30.8306 124.106 31.2439C124 31.6572 123.78 32.0706 123.446 32.4839L116.546 41.1439V40.1039H122.946C123.453 40.1039 123.84 40.2306 124.106 40.4839C124.386 40.7372 124.526 41.1106 124.526 41.6039C124.526 42.0972 124.386 42.4772 124.106 42.7439C123.84 42.9972 123.453 43.1239 122.946 43.1239H114.826ZM126.491 43.3039C126.078 43.3039 125.731 43.2106 125.451 43.0239C125.171 42.8239 124.998 42.5572 124.931 42.2239C124.864 41.8772 124.924 41.4906 125.111 41.0639L130.091 30.3439C130.331 29.8239 130.624 29.4439 130.971 29.2039C131.331 28.9639 131.738 28.8439 132.191 28.8439C132.644 28.8439 133.038 28.9639 133.371 29.2039C133.718 29.4439 134.018 29.8239 134.271 30.3439L139.251 41.0639C139.464 41.4906 139.538 41.8772 139.471 42.2239C139.418 42.5706 139.251 42.8372 138.971 43.0239C138.704 43.2106 138.371 43.3039 137.971 43.3039C137.438 43.3039 137.024 43.1839 136.731 42.9439C136.451 42.7039 136.198 42.3172 135.971 41.7839L134.891 39.2439L136.291 40.2639H128.051L129.471 39.2439L128.391 41.7839C128.151 42.3172 127.904 42.7039 127.651 42.9439C127.398 43.1839 127.011 43.3039 126.491 43.3039ZM132.151 32.8639L129.831 38.4039L129.271 37.4439H135.091L134.531 38.4039L132.191 32.8639H132.151ZM142.925 43.3039C142.338 43.3039 141.885 43.1439 141.565 42.8239C141.245 42.4906 141.085 42.0306 141.085 41.4439V30.7039C141.085 30.0906 141.245 29.6306 141.565 29.3239C141.885 29.0039 142.338 28.8439 142.925 28.8439C143.525 28.8439 143.978 29.0039 144.285 29.3239C144.605 29.6306 144.765 30.0906 144.765 30.7039V35.0639H144.805L149.665 29.7039C149.918 29.4372 150.185 29.2306 150.465 29.0839C150.758 28.9239 151.085 28.8439 151.445 28.8439C152.005 28.8439 152.405 28.9906 152.645 29.2839C152.898 29.5639 153.012 29.8972 152.985 30.2839C152.972 30.6572 152.818 31.0039 152.525 31.3239L147.685 36.4639V34.9639L152.765 40.7039C153.112 41.0906 153.285 41.4906 153.285 41.9039C153.285 42.3039 153.145 42.6372 152.865 42.9039C152.598 43.1706 152.198 43.3039 151.665 43.3039C151.212 43.3039 150.845 43.2172 150.565 43.0439C150.298 42.8572 150.005 42.5839 149.685 42.2239L144.805 36.7639H144.765V41.4439C144.765 42.0306 144.612 42.4906 144.305 42.8239C143.998 43.1439 143.538 43.3039 142.925 43.3039ZM155.534 43.3039C155.121 43.3039 154.774 43.2106 154.494 43.0239C154.214 42.8239 154.041 42.5572 153.974 42.2239C153.907 41.8772 153.967 41.4906 154.154 41.0639L159.134 30.3439C159.374 29.8239 159.667 29.4439 160.014 29.2039C160.374 28.9639 160.781 28.8439 161.234 28.8439C161.687 28.8439 162.081 28.9639 162.414 29.2039C162.761 29.4439 163.061 29.8239 163.314 30.3439L168.294 41.0639C168.507 41.4906 168.581 41.8772 168.514 42.2239C168.461 42.5706 168.294 42.8372 168.014 43.0239C167.747 43.2106 167.414 43.3039 167.014 43.3039C166.481 43.3039 166.067 43.1839 165.774 42.9439C165.494 42.7039 165.241 42.3172 165.014 41.7839L163.934 39.2439L165.334 40.2639H157.094L158.514 39.2439L157.434 41.7839C157.194 42.3172 156.947 42.7039 156.694 42.9439C156.441 43.1839 156.054 43.3039 155.534 43.3039ZM161.194 32.8639L158.874 38.4039L158.314 37.4439H164.134L163.574 38.4039L161.234 32.8639H161.194ZM173.706 43.3039C173.119 43.3039 172.666 43.1439 172.346 42.8239C172.026 42.4906 171.866 42.0306 171.866 41.4439V32.0239H168.726C168.233 32.0239 167.853 31.8972 167.586 31.6439C167.333 31.3772 167.206 31.0039 167.206 30.5239C167.206 30.0306 167.333 29.6572 167.586 29.4039C167.853 29.1506 168.233 29.0239 168.726 29.0239H178.686C179.179 29.0239 179.553 29.1506 179.806 29.4039C180.073 29.6572 180.206 30.0306 180.206 30.5239C180.206 31.0039 180.073 31.3772 179.806 31.6439C179.553 31.8972 179.179 32.0239 178.686 32.0239H175.546V41.4439C175.546 42.0306 175.393 42.4906 175.086 42.8239C174.779 43.1439 174.319 43.3039 173.706 43.3039Z" fill="white"/>
</svg>
