<?xml version="1.0" standalone="no"?>
<svg xmlns:xlink="http://www.w3.org/1999/xlink" id="wave" style="transform:rotate(0deg); transition: 0.3s" viewBox="0 0 1440 360" version="1.1" xmlns="http://www.w3.org/2000/svg"><defs><linearGradient id="sw-gradient-0" x1="0" x2="0" y1="1" y2="0"><stop stop-color="rgba(244, 162, 97, 1)" offset="0%"/><stop stop-color="rgba(42, 157, 143, 1)" offset="100%"/></linearGradient></defs><path style="transform:translate(0, 0px); opacity:1" fill="url(#sw-gradient-0)" d="M0,180L48,156C96,132,192,84,288,102C384,120,480,204,576,240C672,276,768,264,864,246C960,228,1056,204,1152,168C1248,132,1344,84,1440,84C1536,84,1632,132,1728,168C1824,204,1920,228,2016,240C2112,252,2208,252,2304,264C2400,276,2496,300,2592,312C2688,324,2784,324,2880,300C2976,276,3072,228,3168,192C3264,156,3360,132,3456,138C3552,144,3648,180,3744,204C3840,228,3936,240,4032,240C4128,240,4224,228,4320,228C4416,228,4512,240,4608,204C4704,168,4800,84,4896,96C4992,108,5088,216,5184,216C5280,216,5376,108,5472,90C5568,72,5664,144,5760,150C5856,156,5952,96,6048,78C6144,60,6240,84,6336,78C6432,72,6528,36,6624,54C6720,72,6816,144,6864,180L6912,216L6912,360L6864,360C6816,360,6720,360,6624,360C6528,360,6432,360,6336,360C6240,360,6144,360,6048,360C5952,360,5856,360,5760,360C5664,360,5568,360,5472,360C5376,360,5280,360,5184,360C5088,360,4992,360,4896,360C4800,360,4704,360,4608,360C4512,360,4416,360,4320,360C4224,360,4128,360,4032,360C3936,360,3840,360,3744,360C3648,360,3552,360,3456,360C3360,360,3264,360,3168,360C3072,360,2976,360,2880,360C2784,360,2688,360,2592,360C2496,360,2400,360,2304,360C2208,360,2112,360,2016,360C1920,360,1824,360,1728,360C1632,360,1536,360,1440,360C1344,360,1248,360,1152,360C1056,360,960,360,864,360C768,360,672,360,576,360C480,360,384,360,288,360C192,360,96,360,48,360L0,360Z"/><defs><linearGradient id="sw-gradient-1" x1="0" x2="0" y1="1" y2="0"><stop stop-color="rgba(233, 196, 106, 1)" offset="0%"/><stop stop-color="rgba(42, 157, 143, 1)" offset="100%"/></linearGradient></defs><path style="transform:translate(0, 50px); opacity:0.9" fill="url(#sw-gradient-1)" d="M0,180L48,156C96,132,192,84,288,96C384,108,480,180,576,228C672,276,768,300,864,276C960,252,1056,180,1152,144C1248,108,1344,108,1440,132C1536,156,1632,204,1728,186C1824,168,1920,84,2016,78C2112,72,2208,144,2304,174C2400,204,2496,192,2592,186C2688,180,2784,180,2880,174C2976,168,3072,156,3168,144C3264,132,3360,120,3456,96C3552,72,3648,36,3744,36C3840,36,3936,72,4032,114C4128,156,4224,204,4320,228C4416,252,4512,252,4608,258C4704,264,4800,276,4896,258C4992,240,5088,192,5184,174C5280,156,5376,168,5472,156C5568,144,5664,108,5760,96C5856,84,5952,96,6048,126C6144,156,6240,204,6336,192C6432,180,6528,108,6624,96C6720,84,6816,132,6864,156L6912,180L6912,360L6864,360C6816,360,6720,360,6624,360C6528,360,6432,360,6336,360C6240,360,6144,360,6048,360C5952,360,5856,360,5760,360C5664,360,5568,360,5472,360C5376,360,5280,360,5184,360C5088,360,4992,360,4896,360C4800,360,4704,360,4608,360C4512,360,4416,360,4320,360C4224,360,4128,360,4032,360C3936,360,3840,360,3744,360C3648,360,3552,360,3456,360C3360,360,3264,360,3168,360C3072,360,2976,360,2880,360C2784,360,2688,360,2592,360C2496,360,2400,360,2304,360C2208,360,2112,360,2016,360C1920,360,1824,360,1728,360C1632,360,1536,360,1440,360C1344,360,1248,360,1152,360C1056,360,960,360,864,360C768,360,672,360,576,360C480,360,384,360,288,360C192,360,96,360,48,360L0,360Z"/><defs><linearGradient id="sw-gradient-2" x1="0" x2="0" y1="1" y2="0"><stop stop-color="rgba(244, 162, 97, 1)" offset="0%"/><stop stop-color="rgba(42, 157, 143, 1)" offset="100%"/></linearGradient></defs><path style="transform:translate(0, 100px); opacity:0.8" fill="url(#sw-gradient-2)" d="M0,0L48,42C96,84,192,168,288,216C384,264,480,276,576,264C672,252,768,216,864,198C960,180,1056,180,1152,174C1248,168,1344,156,1440,126C1536,96,1632,48,1728,36C1824,24,1920,48,2016,96C2112,144,2208,216,2304,246C2400,276,2496,264,2592,270C2688,276,2784,300,2880,258C2976,216,3072,108,3168,54C3264,0,3360,0,3456,0C3552,0,3648,0,3744,54C3840,108,3936,216,4032,270C4128,324,4224,324,4320,276C4416,228,4512,132,4608,102C4704,72,4800,108,4896,156C4992,204,5088,264,5184,264C5280,264,5376,204,5472,174C5568,144,5664,144,5760,132C5856,120,5952,96,6048,120C6144,144,6240,216,6336,210C6432,204,6528,120,6624,126C6720,132,6816,228,6864,276L6912,324L6912,360L6864,360C6816,360,6720,360,6624,360C6528,360,6432,360,6336,360C6240,360,6144,360,6048,360C5952,360,5856,360,5760,360C5664,360,5568,360,5472,360C5376,360,5280,360,5184,360C5088,360,4992,360,4896,360C4800,360,4704,360,4608,360C4512,360,4416,360,4320,360C4224,360,4128,360,4032,360C3936,360,3840,360,3744,360C3648,360,3552,360,3456,360C3360,360,3264,360,3168,360C3072,360,2976,360,2880,360C2784,360,2688,360,2592,360C2496,360,2400,360,2304,360C2208,360,2112,360,2016,360C1920,360,1824,360,1728,360C1632,360,1536,360,1440,360C1344,360,1248,360,1152,360C1056,360,960,360,864,360C768,360,672,360,576,360C480,360,384,360,288,360C192,360,96,360,48,360L0,360Z"/></svg>